<mxfile host="Electron" modified="2023-05-29T14:43:39.897Z" agent="Mozilla/5.0 (Windows NT 10.0; Win64; x64) AppleWebKit/537.36 (KHTML, like Gecko) draw.io/21.2.8 Chrome/112.0.5615.165 Electron/24.2.0 Safari/537.36" etag="mc7mTw6DmGzfiLfCXtyU" version="21.2.8" type="device">
  <diagram name="Page-1" id="7BYbK6KzowMNJJfhIsLm">
    <mxGraphModel dx="1151" dy="682" grid="1" gridSize="10" guides="1" tooltips="1" connect="1" arrows="1" fold="1" page="1" pageScale="1" pageWidth="850" pageHeight="1100" math="0" shadow="0">
      <root>
        <mxCell id="0" />
        <mxCell id="1" parent="0" />
        <mxCell id="vcjEMFyI4bFxWv6ZDm3t-45" style="rounded=0;orthogonalLoop=1;jettySize=auto;html=1;exitX=1;exitY=0.5;exitDx=0;exitDy=0;entryX=0;entryY=0.25;entryDx=0;entryDy=0;strokeWidth=2;endArrow=classic;endFill=1;" parent="1" source="vcjEMFyI4bFxWv6ZDm3t-44" target="vcjEMFyI4bFxWv6ZDm3t-3" edge="1">
          <mxGeometry relative="1" as="geometry" />
        </mxCell>
        <mxCell id="vcjEMFyI4bFxWv6ZDm3t-44" value="" style="rounded=0;whiteSpace=wrap;html=1;strokeColor=none;fillColor=none;" parent="1" vertex="1">
          <mxGeometry x="84.06" y="310" width="80" height="120" as="geometry" />
        </mxCell>
        <mxCell id="vcjEMFyI4bFxWv6ZDm3t-1" value="user" style="shape=umlActor;verticalLabelPosition=bottom;verticalAlign=top;html=1;outlineConnect=0;strokeWidth=2;" parent="1" vertex="1">
          <mxGeometry x="109.06" y="340" width="30" height="60" as="geometry" />
        </mxCell>
        <mxCell id="vcjEMFyI4bFxWv6ZDm3t-10" style="edgeStyle=orthogonalEdgeStyle;rounded=0;orthogonalLoop=1;jettySize=auto;html=1;exitX=1;exitY=0.25;exitDx=0;exitDy=0;entryX=0;entryY=0.25;entryDx=0;entryDy=0;strokeWidth=2;endArrow=classic;endFill=1;" parent="1" source="vcjEMFyI4bFxWv6ZDm3t-3" target="vcjEMFyI4bFxWv6ZDm3t-4" edge="1">
          <mxGeometry relative="1" as="geometry" />
        </mxCell>
        <mxCell id="vcjEMFyI4bFxWv6ZDm3t-51" style="rounded=0;orthogonalLoop=1;jettySize=auto;html=1;exitX=0.5;exitY=1;exitDx=0;exitDy=0;dashed=1;strokeWidth=2;endArrow=none;endFill=0;" parent="1" source="vcjEMFyI4bFxWv6ZDm3t-3" edge="1">
          <mxGeometry relative="1" as="geometry">
            <mxPoint x="259" y="800" as="targetPoint" />
          </mxGeometry>
        </mxCell>
        <mxCell id="vcjEMFyI4bFxWv6ZDm3t-3" value="" style="rounded=0;whiteSpace=wrap;html=1;strokeWidth=2;fillColor=default;strokeColor=#000000;" parent="1" vertex="1">
          <mxGeometry x="254.06" y="240" width="10" height="520" as="geometry" />
        </mxCell>
        <mxCell id="vcjEMFyI4bFxWv6ZDm3t-11" style="rounded=0;orthogonalLoop=1;jettySize=auto;html=1;exitX=0.915;exitY=0.353;exitDx=0;exitDy=0;entryX=-0.04;entryY=0.349;entryDx=0;entryDy=0;entryPerimeter=0;strokeWidth=2;endArrow=classic;endFill=1;exitPerimeter=0;" parent="1" source="vcjEMFyI4bFxWv6ZDm3t-4" target="vcjEMFyI4bFxWv6ZDm3t-7" edge="1">
          <mxGeometry relative="1" as="geometry" />
        </mxCell>
        <mxCell id="vcjEMFyI4bFxWv6ZDm3t-15" style="rounded=0;orthogonalLoop=1;jettySize=auto;html=1;entryX=0.006;entryY=0.646;entryDx=0;entryDy=0;entryPerimeter=0;strokeWidth=2;endArrow=classic;endFill=1;" parent="1" target="vcjEMFyI4bFxWv6ZDm3t-7" edge="1">
          <mxGeometry relative="1" as="geometry">
            <mxPoint x="510" y="576" as="sourcePoint" />
          </mxGeometry>
        </mxCell>
        <mxCell id="vcjEMFyI4bFxWv6ZDm3t-37" style="rounded=0;orthogonalLoop=1;jettySize=auto;html=1;strokeWidth=2;endArrow=classic;endFill=1;entryX=1.262;entryY=0.378;entryDx=0;entryDy=0;entryPerimeter=0;" parent="1" target="vcjEMFyI4bFxWv6ZDm3t-3" edge="1">
          <mxGeometry relative="1" as="geometry">
            <mxPoint x="490" y="390" as="sourcePoint" />
            <mxPoint x="259" y="590" as="targetPoint" />
          </mxGeometry>
        </mxCell>
        <mxCell id="vcjEMFyI4bFxWv6ZDm3t-38" style="rounded=0;orthogonalLoop=1;jettySize=auto;html=1;exitX=0;exitY=0.5;exitDx=0;exitDy=0;strokeWidth=2;endArrow=classic;endFill=1;entryX=1;entryY=0.5;entryDx=0;entryDy=0;" parent="1" source="vcjEMFyI4bFxWv6ZDm3t-4" edge="1" target="vcjEMFyI4bFxWv6ZDm3t-3">
          <mxGeometry relative="1" as="geometry">
            <mxPoint x="260" y="610" as="targetPoint" />
          </mxGeometry>
        </mxCell>
        <mxCell id="vcjEMFyI4bFxWv6ZDm3t-39" style="rounded=0;orthogonalLoop=1;jettySize=auto;html=1;exitX=0;exitY=0.75;exitDx=0;exitDy=0;strokeWidth=2;endArrow=classic;endFill=1;entryX=0.994;entryY=0.846;entryDx=0;entryDy=0;entryPerimeter=0;" parent="1" source="vcjEMFyI4bFxWv6ZDm3t-4" edge="1" target="vcjEMFyI4bFxWv6ZDm3t-3">
          <mxGeometry relative="1" as="geometry">
            <mxPoint x="260" y="630" as="targetPoint" />
          </mxGeometry>
        </mxCell>
        <mxCell id="vcjEMFyI4bFxWv6ZDm3t-49" style="edgeStyle=orthogonalEdgeStyle;rounded=0;orthogonalLoop=1;jettySize=auto;html=1;exitX=0.5;exitY=1;exitDx=0;exitDy=0;strokeWidth=2;dashed=1;endArrow=none;endFill=0;" parent="1" source="vcjEMFyI4bFxWv6ZDm3t-4" edge="1">
          <mxGeometry relative="1" as="geometry">
            <mxPoint x="499" y="800" as="targetPoint" />
          </mxGeometry>
        </mxCell>
        <mxCell id="vcjEMFyI4bFxWv6ZDm3t-4" value="" style="rounded=0;whiteSpace=wrap;html=1;strokeWidth=2;fillColor=default;strokeColor=#000000;" parent="1" vertex="1">
          <mxGeometry x="494.05" y="240" width="10" height="520" as="geometry" />
        </mxCell>
        <mxCell id="vcjEMFyI4bFxWv6ZDm3t-46" style="rounded=0;orthogonalLoop=1;jettySize=auto;html=1;exitX=0.5;exitY=1;exitDx=0;exitDy=0;entryX=0.5;entryY=0;entryDx=0;entryDy=0;dashed=1;strokeWidth=2;endArrow=none;endFill=0;" parent="1" source="vcjEMFyI4bFxWv6ZDm3t-5" target="vcjEMFyI4bFxWv6ZDm3t-3" edge="1">
          <mxGeometry relative="1" as="geometry" />
        </mxCell>
        <mxCell id="vcjEMFyI4bFxWv6ZDm3t-5" value="&lt;b&gt;FRONTEND&lt;br&gt;layer&lt;/b&gt;&lt;br&gt;Мобильное приложение" style="rounded=0;whiteSpace=wrap;html=1;strokeWidth=2;" parent="1" vertex="1">
          <mxGeometry x="200" y="120" width="118.11" height="78.74" as="geometry" />
        </mxCell>
        <mxCell id="vcjEMFyI4bFxWv6ZDm3t-47" style="rounded=0;orthogonalLoop=1;jettySize=auto;html=1;exitX=0.5;exitY=1;exitDx=0;exitDy=0;entryX=0.5;entryY=0;entryDx=0;entryDy=0;dashed=1;strokeWidth=2;endArrow=none;endFill=0;" parent="1" source="vcjEMFyI4bFxWv6ZDm3t-6" target="vcjEMFyI4bFxWv6ZDm3t-4" edge="1">
          <mxGeometry relative="1" as="geometry" />
        </mxCell>
        <mxCell id="vcjEMFyI4bFxWv6ZDm3t-6" value="&lt;b&gt;BACKEND&lt;br&gt;layer&lt;/b&gt;&lt;br&gt;Серверная&lt;br&gt;часть" style="rounded=0;whiteSpace=wrap;html=1;strokeWidth=2;" parent="1" vertex="1">
          <mxGeometry x="440" y="120" width="118.11" height="78.74" as="geometry" />
        </mxCell>
        <mxCell id="vcjEMFyI4bFxWv6ZDm3t-12" style="rounded=0;orthogonalLoop=1;jettySize=auto;html=1;strokeWidth=2;endArrow=classic;endFill=1;entryX=1;entryY=0.5;entryDx=0;entryDy=0;exitX=0;exitY=0.5;exitDx=0;exitDy=0;exitPerimeter=0;" parent="1" source="vcjEMFyI4bFxWv6ZDm3t-7" edge="1" target="vcjEMFyI4bFxWv6ZDm3t-4">
          <mxGeometry relative="1" as="geometry">
            <mxPoint x="500" y="490" as="targetPoint" />
            <mxPoint x="730" y="500" as="sourcePoint" />
          </mxGeometry>
        </mxCell>
        <mxCell id="vcjEMFyI4bFxWv6ZDm3t-19" style="rounded=0;orthogonalLoop=1;jettySize=auto;html=1;exitX=0;exitY=0;exitDx=0;exitDy=382.5;exitPerimeter=0;strokeWidth=2;endArrow=classic;endFill=1;entryX=1;entryY=0.75;entryDx=0;entryDy=0;" parent="1" source="vcjEMFyI4bFxWv6ZDm3t-7" target="vcjEMFyI4bFxWv6ZDm3t-4" edge="1">
          <mxGeometry relative="1" as="geometry">
            <mxPoint x="510" y="623" as="targetPoint" />
          </mxGeometry>
        </mxCell>
        <mxCell id="fgJox-K0yOeDzXFkcxS7-3" style="edgeStyle=orthogonalEdgeStyle;rounded=0;orthogonalLoop=1;jettySize=auto;html=1;exitX=0.5;exitY=1;exitDx=0;exitDy=0;exitPerimeter=0;strokeWidth=2;dashed=1;endArrow=none;endFill=0;" edge="1" parent="1" source="vcjEMFyI4bFxWv6ZDm3t-7">
          <mxGeometry relative="1" as="geometry">
            <mxPoint x="760" y="800" as="targetPoint" />
          </mxGeometry>
        </mxCell>
        <mxCell id="vcjEMFyI4bFxWv6ZDm3t-7" value="MySQL" style="shape=cylinder3;whiteSpace=wrap;html=1;boundedLbl=1;backgroundOutline=1;size=15;strokeWidth=2;" parent="1" vertex="1">
          <mxGeometry x="720" y="240" width="80" height="520" as="geometry" />
        </mxCell>
        <mxCell id="vcjEMFyI4bFxWv6ZDm3t-22" value="Запрос данных (1 ---&amp;gt; 2,3)" style="text;html=1;align=center;verticalAlign=middle;resizable=0;points=[];autosize=1;strokeColor=none;fillColor=none;" parent="1" vertex="1">
          <mxGeometry x="288.11" y="340" width="170" height="30" as="geometry" />
        </mxCell>
        <mxCell id="vcjEMFyI4bFxWv6ZDm3t-25" value="200 - успешный запрос&lt;br&gt;201 - данные созданы&lt;br&gt;404 - не существует&lt;br&gt;409 - конфликт запроса&lt;br&gt;&amp;nbsp; &amp;nbsp; &amp;nbsp; &amp;nbsp; &amp;nbsp;(не выполнена транзакция)&lt;br&gt;500 - ошибка сервера" style="text;html=1;align=left;verticalAlign=top;resizable=0;points=[];autosize=1;strokeColor=none;fillColor=none;" parent="1" vertex="1">
          <mxGeometry x="60" y="630" width="210" height="100" as="geometry" />
        </mxCell>
        <mxCell id="vcjEMFyI4bFxWv6ZDm3t-32" value="400 - не верно указаны данные&lt;br&gt;&amp;nbsp; &amp;nbsp; &amp;nbsp; &amp;nbsp; &amp;nbsp;в теле запроса" style="text;html=1;align=left;verticalAlign=top;resizable=0;points=[];autosize=1;strokeColor=none;fillColor=none;" parent="1" vertex="1">
          <mxGeometry x="54.06" y="430" width="200" height="40" as="geometry" />
        </mxCell>
        <mxCell id="vcjEMFyI4bFxWv6ZDm3t-33" value="Проверка токена доступа (SQL)" style="text;html=1;align=center;verticalAlign=middle;resizable=0;points=[];autosize=1;strokeColor=none;fillColor=none;" parent="1" vertex="1">
          <mxGeometry x="504.05" y="390" width="200" height="30" as="geometry" />
        </mxCell>
        <mxCell id="vcjEMFyI4bFxWv6ZDm3t-40" value="Запрос данных (SQL)" style="text;html=1;align=center;verticalAlign=middle;resizable=0;points=[];autosize=1;strokeColor=none;fillColor=none;" parent="1" vertex="1">
          <mxGeometry x="545.0000000000001" y="550" width="140" height="30" as="geometry" />
        </mxCell>
        <mxCell id="vcjEMFyI4bFxWv6ZDm3t-43" value="401 - не авторизован" style="text;html=1;align=left;verticalAlign=top;resizable=0;points=[];autosize=1;strokeColor=none;fillColor=none;" parent="1" vertex="1">
          <mxGeometry x="54.06" y="485" width="140" height="30" as="geometry" />
        </mxCell>
        <mxCell id="fgJox-K0yOeDzXFkcxS7-2" style="edgeStyle=orthogonalEdgeStyle;rounded=0;orthogonalLoop=1;jettySize=auto;html=1;exitX=0.5;exitY=1;exitDx=0;exitDy=0;strokeWidth=2;dashed=1;endArrow=none;endFill=0;" edge="1" parent="1" source="fgJox-K0yOeDzXFkcxS7-1" target="vcjEMFyI4bFxWv6ZDm3t-7">
          <mxGeometry relative="1" as="geometry" />
        </mxCell>
        <mxCell id="fgJox-K0yOeDzXFkcxS7-1" value="&lt;b&gt;DATABASE&lt;br&gt;layer&lt;/b&gt;&lt;br&gt;База&lt;br&gt;данных" style="rounded=0;whiteSpace=wrap;html=1;strokeWidth=2;" vertex="1" parent="1">
          <mxGeometry x="700.94" y="120" width="118.11" height="78.74" as="geometry" />
        </mxCell>
        <mxCell id="fgJox-K0yOeDzXFkcxS7-5" value="2" style="text;html=1;align=center;verticalAlign=middle;resizable=0;points=[];autosize=1;strokeColor=none;fillColor=none;" vertex="1" parent="1">
          <mxGeometry x="358.11" y="390" width="30" height="30" as="geometry" />
        </mxCell>
        <mxCell id="fgJox-K0yOeDzXFkcxS7-6" value="3" style="text;html=1;align=center;verticalAlign=middle;resizable=0;points=[];autosize=1;strokeColor=none;fillColor=none;" vertex="1" parent="1">
          <mxGeometry x="600" y="370" width="30" height="30" as="geometry" />
        </mxCell>
        <mxCell id="fgJox-K0yOeDzXFkcxS7-7" value="Сессия существует?&lt;br&gt;(3 ---&amp;gt; 4,5)" style="text;html=1;align=center;verticalAlign=middle;resizable=0;points=[];autosize=1;strokeColor=none;fillColor=none;" vertex="1" parent="1">
          <mxGeometry x="558.1099999999999" y="450" width="140" height="40" as="geometry" />
        </mxCell>
        <mxCell id="fgJox-K0yOeDzXFkcxS7-8" value="4" style="text;html=1;align=center;verticalAlign=middle;resizable=0;points=[];autosize=1;strokeColor=none;fillColor=none;" vertex="1" parent="1">
          <mxGeometry x="358.11" y="470" width="30" height="30" as="geometry" />
        </mxCell>
        <mxCell id="fgJox-K0yOeDzXFkcxS7-9" value="5" style="text;html=1;align=center;verticalAlign=middle;resizable=0;points=[];autosize=1;strokeColor=none;fillColor=none;" vertex="1" parent="1">
          <mxGeometry x="600" y="535" width="30" height="30" as="geometry" />
        </mxCell>
      </root>
    </mxGraphModel>
  </diagram>
</mxfile>
